<svg width="32" height="32" viewBox="0 0 32 32" fill="none" xmlns="http://www.w3.org/2000/svg">
  <path d="M16 32C24.8366 32 32 24.8366 32 16C32 7.16344 24.8366 0 16 0C7.16344 0 0 7.16344 0 16C0 24.8366 7.16344 32 16 32Z" fill="#23F7DD"/>
  <path d="M23.5 8.5L16 12.5L8.5 8.5L16 4.5L23.5 8.5Z" fill="black"/>
  <path d="M23.5 13.5L16 17.5L8.5 13.5L16 9.5L23.5 13.5Z" fill="black"/>
  <path d="M23.5 18.5L16 22.5L8.5 18.5L16 14.5L23.5 18.5Z" fill="black"/>
  <path d="M23.5 23.5L16 27.5L8.5 23.5L16 19.5L23.5 23.5Z" fill="black"/>
</svg> 